<mxfile host="app.diagrams.net" modified="2024-03-19T08:16:46.226Z" agent="Mozilla/5.0 (Windows NT 10.0; Win64; x64) AppleWebKit/537.36 (KHTML, like Gecko) Chrome/122.0.0.0 Safari/537.36" etag="oSMDgd9nkM7zE5H249sD" version="24.0.1" type="github">
  <diagram name="第 1 页" id="5ubcjruZw1IjvaPDr_Kx">
    <mxGraphModel dx="989" dy="509" grid="1" gridSize="10" guides="1" tooltips="1" connect="1" arrows="1" fold="1" page="1" pageScale="1" pageWidth="827" pageHeight="1169" math="0" shadow="0">
      <root>
        <mxCell id="0" />
        <mxCell id="1" parent="0" />
        <mxCell id="7Gm7CVdLcvvEVIDUGQ9e-1" value="" style="endArrow=classic;html=1;rounded=0;strokeWidth=1.5;fontSize=16;" edge="1" parent="1">
          <mxGeometry width="50" height="50" relative="1" as="geometry">
            <mxPoint x="160" y="244" as="sourcePoint" />
            <mxPoint x="620" y="244" as="targetPoint" />
          </mxGeometry>
        </mxCell>
        <mxCell id="7Gm7CVdLcvvEVIDUGQ9e-2" value="" style="endArrow=none;html=1;rounded=0;strokeWidth=1.5;fontSize=16;" edge="1" parent="1">
          <mxGeometry width="50" height="50" relative="1" as="geometry">
            <mxPoint x="160" y="260" as="sourcePoint" />
            <mxPoint x="160" y="230" as="targetPoint" />
          </mxGeometry>
        </mxCell>
        <mxCell id="7Gm7CVdLcvvEVIDUGQ9e-3" value="" style="endArrow=none;html=1;rounded=0;strokeWidth=1.5;fontSize=16;" edge="1" parent="1">
          <mxGeometry width="50" height="50" relative="1" as="geometry">
            <mxPoint x="620" y="260" as="sourcePoint" />
            <mxPoint x="620" y="230" as="targetPoint" />
          </mxGeometry>
        </mxCell>
        <mxCell id="7Gm7CVdLcvvEVIDUGQ9e-4" value="" style="endArrow=none;dashed=1;html=1;strokeWidth=1.5;rounded=0;fontSize=16;" edge="1" parent="1">
          <mxGeometry width="50" height="50" relative="1" as="geometry">
            <mxPoint x="160" y="410" as="sourcePoint" />
            <mxPoint x="160" y="244" as="targetPoint" />
          </mxGeometry>
        </mxCell>
        <mxCell id="7Gm7CVdLcvvEVIDUGQ9e-5" value="Sen&lt;sub style=&quot;font-size: 16px;&quot;&gt;j,k&lt;/sub&gt;" style="text;html=1;align=center;verticalAlign=middle;resizable=0;points=[];autosize=1;strokeColor=none;fillColor=none;fontSize=16;" vertex="1" parent="1">
          <mxGeometry x="85" y="230" width="70" height="40" as="geometry" />
        </mxCell>
        <mxCell id="7Gm7CVdLcvvEVIDUGQ9e-6" value="m&lt;sub style=&quot;font-size: 16px;&quot;&gt;1&lt;/sub&gt;" style="text;html=1;align=center;verticalAlign=middle;resizable=0;points=[];autosize=1;strokeColor=none;fillColor=none;fontSize=16;" vertex="1" parent="1">
          <mxGeometry x="95" y="265" width="50" height="40" as="geometry" />
        </mxCell>
        <mxCell id="7Gm7CVdLcvvEVIDUGQ9e-7" value="m&lt;sub style=&quot;font-size: 16px;&quot;&gt;2&lt;/sub&gt;" style="text;html=1;align=center;verticalAlign=middle;resizable=0;points=[];autosize=1;strokeColor=none;fillColor=none;fontSize=16;" vertex="1" parent="1">
          <mxGeometry x="95" y="307" width="50" height="40" as="geometry" />
        </mxCell>
        <mxCell id="7Gm7CVdLcvvEVIDUGQ9e-8" value="m&lt;sub style=&quot;font-size: 16px;&quot;&gt;3&lt;/sub&gt;" style="text;html=1;align=center;verticalAlign=middle;resizable=0;points=[];autosize=1;strokeColor=none;fillColor=none;fontSize=16;" vertex="1" parent="1">
          <mxGeometry x="95" y="347" width="50" height="40" as="geometry" />
        </mxCell>
        <mxCell id="7Gm7CVdLcvvEVIDUGQ9e-10" value="" style="rounded=0;whiteSpace=wrap;html=1;fontSize=16;" vertex="1" parent="1">
          <mxGeometry x="170" y="312" width="110" height="30" as="geometry" />
        </mxCell>
        <mxCell id="7Gm7CVdLcvvEVIDUGQ9e-11" value="" style="rounded=0;whiteSpace=wrap;html=1;fontSize=16;" vertex="1" parent="1">
          <mxGeometry x="390" y="352" width="170" height="30" as="geometry" />
        </mxCell>
        <mxCell id="7Gm7CVdLcvvEVIDUGQ9e-12" value="" style="rounded=0;whiteSpace=wrap;html=1;fontSize=16;" vertex="1" parent="1">
          <mxGeometry x="430" y="312" width="80" height="30" as="geometry" />
        </mxCell>
        <mxCell id="7Gm7CVdLcvvEVIDUGQ9e-14" value="" style="rounded=0;whiteSpace=wrap;html=1;fillColor=#dae8fc;gradientColor=#7ea6e0;strokeColor=#6c8ebf;dashed=1;fontSize=16;" vertex="1" parent="1">
          <mxGeometry x="280" y="312" width="40" height="30" as="geometry" />
        </mxCell>
        <mxCell id="7Gm7CVdLcvvEVIDUGQ9e-15" value="" style="rounded=0;whiteSpace=wrap;html=1;fillColor=#dae8fc;gradientColor=#7ea6e0;strokeColor=#6c8ebf;dashed=1;fontSize=16;" vertex="1" parent="1">
          <mxGeometry x="510" y="312" width="20" height="30" as="geometry" />
        </mxCell>
        <mxCell id="7Gm7CVdLcvvEVIDUGQ9e-17" value="" style="group;fillColor=#dae8fc;gradientColor=#7ea6e0;strokeColor=#6c8ebf;dashed=1;fontSize=16;" vertex="1" connectable="0" parent="1">
          <mxGeometry x="300" y="270" width="150" height="30" as="geometry" />
        </mxCell>
        <mxCell id="7Gm7CVdLcvvEVIDUGQ9e-9" value="" style="rounded=0;whiteSpace=wrap;html=1;fontSize=16;" vertex="1" parent="7Gm7CVdLcvvEVIDUGQ9e-17">
          <mxGeometry width="120" height="30" as="geometry" />
        </mxCell>
        <mxCell id="7Gm7CVdLcvvEVIDUGQ9e-13" value="" style="rounded=0;whiteSpace=wrap;html=1;fillColor=#dae8fc;gradientColor=#7ea6e0;strokeColor=#6c8ebf;dashed=1;fontSize=16;" vertex="1" parent="7Gm7CVdLcvvEVIDUGQ9e-17">
          <mxGeometry x="120" width="30" height="30" as="geometry" />
        </mxCell>
        <mxCell id="7Gm7CVdLcvvEVIDUGQ9e-25" value="" style="shape=image;verticalLabelPosition=bottom;labelBackgroundColor=default;verticalAlign=top;aspect=fixed;imageAspect=0;image=data:image/png,iVBORw0KGgoAAAANSUhEUgAAAFEAAAA2CAIAAAAwHOKDAAAAAXNSR0IArs4c6QAACLpJREFUaAXlWv1PFEka9g/qH0j2By/k0iHE+JHZrB2BdVFcWFzUQ2RBXCQgJyIgsgi4wALCeAqC57LgIsKBsnAIKLN8HWQgjIAI5/DNMM18Nz1dt1yRl7J7pmcYAjfjEWPerup6q56u93k/quYA+v/7O+AlkAVB0ExO19Q3Fylr8korlTX1drt9j9bmLZitNi6n6H7I2cufHQqhaKaqtnE3gFd0a+l3Sp61djhU4i2Y8eLWDcaoy9f9AoMGRsYcLlem0WKxzi0sdasGbxcq/RVhFM3UN7U5fN+7ME+8mzkU/G1wZPzi8orD5co01je1+QUGfRmVcOtu+eGQKJ/B3NrRQ9FMYnqexWKVgSffpdOzpy4k+gZmnuezCsp3T2Zfwgxk7htSy++kfK8vYR57O0UfDyfJvKJbu12oDGAibt4pNZkt8lCh15cwi8g8MDwak5Q5MDL226texelo9z25z2AWkbm3f/iH4r8ZjKYu1aBfYBBFM+4bvM9gBjKrBkfau1S5Pz3Axtz26o1fYNDZuNRVnR6sV17wGcyYzPTx8MT0vMKKaqvVhoHZ7YKeNXDchjxOstdDzDaOGx7VaBeWBEEg1e2djMlM0cxnh0LOJaQ1tLSbLe46LdGqPMFs47gbuSUUzXxxJubD3IJI4148ApkfPmlYWFopUtb4BQYx4bHvZ7UeTOcJ5g9zC1+ciaFohgwbHszt/hAgM3ZUgiCUVdZSNHOvqhYrsdo4nufdVOgJ5s7X/RTN7D4HdHOJCCFpml1V20jRTF5pJULIaDIn3rgz9nYKFPI8L0PyHWMWBKHgXhXGDJ8ZJtsjQRSZEUJ5pZWQMGsmp1Oy7kJOYrFYU279SNHMuYQ0PWuQLmnHmI0m86XkLIpm/AKD3A+J0ol31FJYUS1Ksx8/baZopvN1P8/zP5Y/au3oAYUAiaKZ3v5haOe4DZ2e1enZLtUgrqvS75TMaud1enbdYCSdsbiWfD+rPfbVhf0ks8ViTUzP81eEqccnAMDSiu5cQloAExEcGV/68GeSzDzPV9U2Hjwa+ufPz5AVct+QGpun9H9RoSbGDGROzS60cRwsQioYTWadnt1R5EQICYKwbjAaTWZSocViFbUghDBpRVtEjqptfOHsJIR8TSof0LOGpIz80PPf439HTp7H3ymAiYDG/LJKEpt2YSk25RZ+zV8RVvusldwHPAfP8w0t7ZHfpba0d4Nd8TxfpKyhaMZfEUaapXRZLlt4ns8puj88qnH5pvSFA2DMUpOAlrLKWlj35PQsEx4bffXmmGaqpb0bM79LNShSPTyqOXg0VOT8B0bGcPJM0UxaTjH5HUXDXT7Oaue/v5Hr0Ie5HPuRbbuMzNhnXkrOYtc3HSZQCAcVcjIcbMgYixBSj0/gkyrRtyAHuiNjx9bQ0u7Oy9J3PsIMZE7OvGu1OSBzl2qQPh4OFlXf1IZtIfenB2AICCHslnBX5+t+mFUQhKfNm6dWu8Tc9LKTjF6g303hI8w4ZojCBiiycVxqdiH4NvyIgZGxBCEE9nLsqwui/JHn+Yy8MopmsgrKpV4A5pIX7P/9k39HpncbMxmZHRboGElzWxdWN6udV5yOdpiW9w2p8WZeSs6SOmScgezyBFsGksuubczgzJyl2Xb7ZpiBzQHDlu4YkLmwolq6AvxF9i3hkS5gG7NLMpODTWZL3LVsh07bGZlheH1T275VbDApKWxjliczOQYhpJmcDjwR6TBdW1xeCY6Md2jzONPIKigXJUYi5Xv9uIWZJLM7Vidj2BCEHZJZt8ae/stVMmfca4RS/VuYXZKZHMlxG2k5xdhjS7M/l2Q+FPytZnKaVAiy3S68etN/MSnDs2QD6xEEoaW9O/K7VNXgCGgmhS3MQGaR1S0ur56MuiLaFjCKg0dDIVaDUlwGUjQj/Rw4YYy7lg2FIUIIn3ipxyd+aXzxdUwyRTOnLiTq9Cwo3KkAkdKhB0UIbWEGMotq5vqmtsMhUVPv/01ODNWctIt0YFKO4PAG0Q7rxNoCmIi4a9lXb+btHrOeNVxMyvgyKmFyepZcNsibmMmFkqn/rHaeCY+teFRH5ljk+/TxcPL4AiGkZw1n41KlGRiuqCoe1Tkr9PGCsJvY5T4DNmfCJmaSn7A5BqMpKSPf2RLv1zzFwKp/eQ5fRBCEuucvcTtFM2RlghDq7R8OPHG2W1KNkCvbP8wIodaOHpw51T1/abfbxyemo6/ejIhNmV9cJtcE8tKKLiI2haKZACbixT9fc9yG1Wr7+6//OHg0VFldF3X5Oi4YWzt6OG6D4zY6en4/cvJ8yYMnkNKAKlLYV8w8zz980oB/14Azjcz8sjV2nVyQSF7RrWXml0FtiI+mf25o4Xl+jV0XdTkrs0U6d4PZxnG/Nv924pu4IyfPK6vr4FZANMW2D8MdetbQN6RWDY4sLq+CxUrHkC0Wi1U9PvGm/199Q2pRgCG7DEYTOcqZ7DHmPwLB9Zzi0gdP1g3G5y86KZp5/LTZ2SxbfttZ9z63e4ZZEISKR3VFyhpMHFzDSEt6wPIpYJ7Vzsen3l5eXcOocNwVBV0ALLZtsuN/Inu2z9MzHyDcmC2WK2m5+JzYGYRPYZ9JbDgJk55VkO98aph7+4cpmnFY3gDsTw3zvarNyz1nmTaG7WOYjSazzCm/O2T2MR/WN6T2V4T5BQaJjhzBaN0hs1dgxrc5Oj07t7CUWXCPopnDIVEdPb+v6vSiuyHs1SmauZKW6/BXCO6Q2Sswk1Ud1CcgQBBCCM18mPs6JvlPx06duZjksMDGZJaJzN7IZ7BSGWFVp0/KyBflufhqHt8ik7cIDvV4lw9zuERR49jbqVt3y6V3XZjM7pyo+hhm/FMTfNKC76jh4hqz/UZuifwVslfwWbSN8o8T72biU2/j38c9a+3AZe/AyNjEuxnF6eiw6CTtwpK8Bh/DrFtjLyZlwOnV8KjGXxGWcP2H4vuPA5iIy3/NWVxedQn4D8z/AZhit5Wb/pAcAAAAAElFTkSuQmCC;fontSize=16;" vertex="1" parent="7Gm7CVdLcvvEVIDUGQ9e-17">
          <mxGeometry x="41.25" y="2.5" width="37.5" height="25" as="geometry" />
        </mxCell>
        <mxCell id="7Gm7CVdLcvvEVIDUGQ9e-22" value="" style="shape=image;verticalLabelPosition=bottom;labelBackgroundColor=default;verticalAlign=top;aspect=fixed;imageAspect=0;image=data:image/png,iVBORw0KGgoAAAANSUhEUgAAAFEAAAA2CAIAAAAwHOKDAAAAAXNSR0IArs4c6QAACW5JREFUaAXlWvtTE1kW9g/qH6iaH9iitrooylKs7I5dPIZBw4I4iAvKgCimUFZEHsrwkAkMIMQVEFxkwUGFBWVgGR6SJQRhgRUBI1ki75CQhCRNp+8ue6nLpbvTNFBoUktR1O37OPd83ec7j3s5Bv7/fo55CGSWZSendXVNrcWquoKyalVdk8vlOiLdPAWzw0nnFj8MPX/lq+OhBEnVNLw4DOAV41pGfunz9i5BIZ6CGSq3brHGXLnlExA8NDohqK5Ip93u+LSw1KvW3lOq/GRygqSaWjoE53sW5qkPs8dDvguJTlpcXhFUV6SzqaXDJyD4m5jknKKKE6ExXoO5vauPIKmUjAK73SECT3zIaDKfuZjiHZgZhsm+X3F4MnsTZkTmweEx8S8pPupNmCfez5CnI3EyrxjX7ilV/lTUnfwy24ZdHCoa9SbMHDIPjYxfUmQNjU788uuA7GycdE/uNZg5ZB7QjPxQ8meL1daj1voEBBMkJd3gvQYzIrNaO9rZo8776RE05o5f3/gEBJ9PTFs1mpD1ije8BjMkM3k6MiWjQFlZ63A4ITCXizWZLTS9KY4THz0gZidNj4xPGhaWWJbFxR1dG5KZIKmvjodeSE5vbuvcsEt1WhytDoLZSdO380oJkvo64tLcpwWOxKN4RGSuqm9eWFopVtX5BARTkQkf9YYDbHcQzHOfFr6OuESQFB42DrC39CWIzNBRsSxbXt1AkNSDmgYoxOGkGYaRKPAgmLv7NQRJHT4HlKgiAICfZtc0vCBIqqCsGgBgtW2k3M6feD+DBDIMI0LyfWNmWfb+gxqIGb1mtNkRNTiRGQBQUFaNEubJad2N7CKUk9jtjhs5PxIkdSE53WS28FXaN2arbeNyajZBUj4BwdJDIn/jffUoK2s5afaTZ60ESXX3axiG+bHicXtXHxKIIBEkNaAZQf00vWk0mY0mc49aC+uqjPxSvWHeaDKvW6y4M+bWkh/1hlPfXvycZLbbHSkZBX4y+di7KQRgacV4ITndn4oKiU4qq3qKk5lhmJqGF76B4b/9XQReIQ8Oj0Hz5P/lFGpczIjMaXeVTppGSvAbVtuG0WTeV+QEALAsu26xWm0buEC73cHpAQBA0nI+Eb6q4cUrdych+DR++5jJbFFkFobHXoO/J8Ni4Xvyp6JQZ2F5NY7NsLCUcCMHTvOTyRuet+PfAe7BMExzW2f092ltnb3IrhiGKVbVESTlJ5PjZslXa88ehmFyix+OjE/uOZM/4RgyZr5JoJ7y6gak97ROT0UmxF2/MzE509bZC5nfo9ZyRI+MT/oGhnOc/9DoBEyeCZJKzy3B3yNn+Z6PesP8tdt5gj5sz7W7bHvPyAx95uXUbPP6lsNEFIJBBd8MBhs8xgIAxt5NwZMqzrvAF0ppQ8fW3NYpZTJ/zi7MiMypWUUOpwCZe9Ra8nQksqimlg5oC3k/PUKGAACAbgkOdfdr0K4syz5r3Tq1OiTmltfdePRC8iU2dmGGMYMTNpAgJ02n3VUi3wYfITA8lgAAkL2c+vYiJ39kGCazoJwgqez7FXwvgPYSb7j+9yM+R2R0BzMemQULdIiktaMHitMb5mVn4wTT8sHhMfgxL6dm8x0yzEAOeYItAmnPoR3MyJm5S7Ndrq0wgz4OMmz+F0NkVlbW8jWAb+SzJTx8BXYw70lmfLFtw554866g03ZHZrS8qaXjs1VsaFO8sYNZnMz4GgDA5LQuIChaMF1bXF4JiU4StHmYaWTfr+AkRhzhR/24jRknsxSrEzFsFIQFyWxcM5/943U8ZzxqhHz525j3JDO+kqY303NLoMfmZ397kvl4yHeT0zpcIABgWqdPzy2B0TvoXGJZ1dMV4xpnjsRHlmXbOnujv09Ta0cFl2xjRmTmWN3i8mpYzFXOZ0FG4RsYjmI1kg7LQIKk+K8DJoyJN++iwhBm4K0dPUHnElted+sN8939mgvJ6QRJnQiNGRoZR2KlN1CkFPSgAIBtzIjMnJq5qaXjRGjMzMd/41uiao4/hDswPkdgeEPRDsqcmJwJj7029WEWbWHbsKdmFREkRUUm6A3zqF9iw2S2xCsyv4lJntbpBZdsYcYVxVN/vWGeikyofNyI51j4fPJ0JH58AQAwmS3nE9P4GRj8npWPG/mFvrKy1k8mzy/dPtyFWg7/818wXcdTfUEAB+jcwozzE30ci9WmyCzkqwj3eFj3DAKr/etL9EZYlm18+Rr2EyTFUXdAMxIQdL53dzWCv248S0WmdDU978AHoO5ex7Ztt3f1wcyp8eVrl8v1bkoXd/1OVMKN+cVlwZVLK8aohBsESflTUa/+3k/Tmw6H8y8//803MFxV2xhz5RYsGNu7+mh6k6Y3u/r+cTIstvRRPUppoFiWZSsfN8LJ+JnBht1+NT2PIKkzF1OMJrOgDgfu3MbMMExVfTP8vwaYaWQVlq+Z10XkrhjXsgrLUW0Ij6afNrcxDLNmXucMuSuzAQDwLP2j3oDsBQCwajSFxVwlSMpdtcNXzEnTP7f+EnQu8WRYrKq2Ed0K8GduY4YDJrNlcHhMrR1dXF7FNeAvQz12u2Ps3dQbzdvB4TFONYsPWaw2tERKA/H5ybNWKfP/Gwhu5ZaUPapft1hfvuomSEpk4S7MUqR/hjnoUsGdN+HoAAlSrKqDxIE1DL+kR6s8EXOvWusbGB4ee003O4cUFWnoDfNJafeWV7dzGBh3OUEXX+5xmKc+zMrOxkXEK6RfG+lm51C4Qc4PjwI44J2chNP7pR5hOLicmi395pWjKkzC+GcV+DQP+s4w/bqZo0QOj2GYdYvV5drH3eiAZoQgKcHyBsH2FMwQcE5RBZ6KT7yfuZmj3FdO8qBm63LPXaYNYXsEZnjurays5dwidPdrOIcwVtuGyCm/FDJ7BJ9drq2M9ffy+Kr65jeat280b3vV2qr65mJVnTxOgR+bDQ6P+cnkPgHBnCNHZLRSyPzlMeOnvyhRxxu4+0UHFe6ScClk/vKY8RoDhwrbnPp8du7THy6l/ubUmYh4hWASDsksEpk9iM/IOKU0Vo0mRWYhJ8+FV/PwFhk3DUGBHuHDBDVz1znxfianqIJ/1wXJLOVE1csww381gSct8I4aXVxDtt/OK+U4f/678zLMUx9mk9LuwSzteXsXLHuHRidgxiqPUxgWlvggOT3ehNm4Zo5XZKLTq5HxST+ZPPnWDyUPn/hTUVf+lLu4vMqBJ/j4H6rwiHu/2UFwAAAAAElFTkSuQmCC;fontSize=16;" vertex="1" parent="1">
          <mxGeometry x="206.25" y="314.5" width="37.5" height="25" as="geometry" />
        </mxCell>
        <mxCell id="7Gm7CVdLcvvEVIDUGQ9e-24" value="" style="shape=image;verticalLabelPosition=bottom;labelBackgroundColor=default;verticalAlign=top;aspect=fixed;imageAspect=0;image=data:image/png,iVBORw0KGgoAAAANSUhEUgAAAFEAAAA2CAIAAAAwHOKDAAAAAXNSR0IArs4c6QAACi1JREFUaAXlWvtPFFkW9g+qH0jmBzdkUzHEjLrsakVUBoEFcRAHFVEUCciKioAMggiMIOAICC6ygKgwoAiDIMLSgM0CK/KSXlveTTf9pK2u2mEPOVxuFd1lm9E2S4w5dfs+zlf3PL5zb20R///+tngIZEEQRsYmK2oacosrMvNLiytqHA7H76Sbp2C2rdjTc2/vP3z6m+37GZYrq3rkBmCbbeVBw7MD4TEMy3n7Bp1MSOtSqR0OgZrKUzCDWstGU/jpC14+fr0Dw5SiLh8XdfqohNRL126qh0ZGJ6ZulVV5+wYxLJeaXWi2WMnhnoV5dGJq+77v94Wdmp1fILV0KfM8n3ajKLe4gud57NylUgPsorvVgrC+256Fuan1BcNysZcyrVYbqq5EeKvR7vru6IHwGNJAVuz2xLQchuV8AyM12mmcx4Mw8zyfcr3QPWfu6R9kWI5huRPxKSazBeHV1DdDe5dKjY0ehBmduad/EPVTKGi001xIFMNyyZkFdvsHHNWlUgPmmvpmbPQgzMNvxtk9IaQzL+iWruYUb+NCL1/Lp+IQAkBhena+p3/QYt0QrqoePWFYjgqKHoSZcuZe9dDxuCu9A8PPnnf5BkaSjoo4nQvoz/7hZ2bnF7Gzp2CmnLlLpf4x72ejydze3efl4/dbHHLD4NVDI96+QV4+fk2tLxCwKIqeghmdubtvoKW9O+OnO2DMzc9fevn4HY5OXNTpSb1dymaL9ezFDC8fv5/v1ZIJzIMwgzOze0JiL2XmFJXbbCuAyuEQ9AYjGZZcohVFkef53OIKLx+/e7UNFOBNMa/Y7eqhEe3MHJnKlSzmdh9wZoblvtm+/0hMUl1jCxWNlM8sCEJtQzO7J6ShuV1WfxnbXrHbL2bcZFhud/Dxd+9nlC/mdk905pLKupm5BdgiLiTqrUbrxpxdKvWfAn7o7HmFgE1mC0lyZDC/ez+zO/g4w3Jk2nBjbeVD0JkhUAmCUFBaxbDcrbIqmMS2YpeaqOz8XSr17uDjveoh/BVeqAtO0tapgjzuBgfElT5KkNLssqpHDMtl5peKomgyW2IvXht+M45z8jwv6+SjE1OhUQkjY5PYU3Y4vc+CIFy/VQaY8TWTU/weMpWZRVHMzC9lWA7I08jYZEJKNnISq9WWkHqDYbkjMUl6gxH1mZ6dD41KSEjJbn7+8qXq1UvVq1+etecWVyRnFhw8GksWLTRmk9lyIj4FuIsbKRE1+Cghp6icotn3ahsYlmvrVPE8f6PwLplgdXrDwaOxFIueW9CFRiVAo/R/ioTTmKFA+ZzObLXaYi9levsGDb4exTc1t6A7EpO0jQvdF3Yqv+Q+6cw8z5dVPdq6M+CPfw5GFo01hhQww3JJ6XlktqMxozMnpuWs2O2ohFQwmS06vYGcS9pH2iIIwrLRRJY+oiharTaqBXKs3mBcNpow/FKzVT168rCplWpU8rhFbzDGJWcFRJyFfzv8I+BVbeNCsTGroJTEpp2Zi0pIhW7evkFVD5vIfYBVeZ6va2wJO5nY2NKBSgNVgIMbMpAqUZTqw/N8eu5t9dAI1a7kcQsas6xVQGNBaRXqPTap4UKiIs9dHh4Zb2zpAM9v7+6jFlMPjWzdGUAdAPQODAN5ltobNdzlo0Y7ffZiBhnDXA7BDhts22Vmhph5Ij7FsLwaMNGLIKngpKIoQrIhc6woioOvR+GwhnoX5EAlMgS2usYWJZ2lfTZgRmeOv5JtW5Fx5vbuPnZPCFoUnkJk/HQHDQH8M/ZSJthIW6cKVwVWCFv9Kcm//mkbmb1wfoXCBsyQM6i0gRNBOYqxDatThuXIXCKKItrLru+OUvyR5/nkzAKG5VKuF0qjAK7lXHD87895Hye/rmMmM7NsgQ5IGprbYTqNdto3MFKWlvf0D8JmUokRBgIDce8E2wkS5T+tY8ZgthnNdjhW0wxuDhq2dMfQmXOKyqWqwBv5bIRHqsA6ZpfOTA42W6zR59NkgzZwDKkz4/Ca+ubPVrHhoqSwjtm5M5NjRFEcGZv02RsmS9dm5xf2hZ2StXlgGinXCz8lgFGauPG4hpl0ZiVW58SwMQnLOrNuyRD4wznkjG5o/OlD1jC7dGZyJbv9Q1J6HlivlP25dObt+76nyj1RFMcmNUnpeZC99x6Kzi+5v6BbIhdVLguC0NjSEXYysbtvQHbUGmZ0ZsrqZucX/cPPUNuCRrF1ZwDmapwdykCG5aSvAwhj9Pk0LAxFURQEoaG5fe+h6PqnbRrtdFun6khMEsNy3+4PJ0t/nN+lgJlSNoKun4ehM1M1c01987f7w8ff/odcCas56U9kAJP6CKQ3zHYw5/DIeEDE2dGJKVzCbLHGX8lmWI4LiSLvmbCDc0FvMB6LSz4QHjM2qZHtubrPpKIk9YcLEepSj+zP7gkhjy9EUdQbjIejE2WDtiAIRXerqUJfFMWconJv36BrN9cOd0HL/n/9G+g6SfVlAbjRuIqZ9E/cHKPJHJecJVUR1rhdUQvAyv/xGFmnIAjVj59CO8NylLpdKrXP3sMdG6sR8nWTLBVN6UxShtsHoJu9jjV/bmp9Acyp+vFTh8PxenQy8tzl0KiE6dl52ZF4LrGNC33ya6fd/sFmW/n7g1+27gwoLq8OP30BCsam1hd2+we7/UPri3/u8I+4eacSKQ1MC5sPnckzA4vVeiYpg2G5g0djdXqDrA5uN65h5nm+pLIOvmsApnElq2DJsOxk3gXd0pWsAqwN4Wj6fl0jz/NLhmXqp83KbFEU4Sz9rUaL9iKK4qJO7x9+hmG5zaodqWIrdvuDhmd7D0Xv8I8oLq/GWwFpzzXM8IPeYOzpH+zuG5idXyQ1kA7DFqvVNvh69KXqVU//IFXNkj8ZTWYcokRAf75X26Ck/2+J4EJ6Xv6dymWj6fGTNoblnAzcgFnJ7J+hD14qbBZNKB3AQfDDCqhhpCU9jvJEzB3dfVt3BgREnJ2ceoeKOhE02ulTiVfnF9c4DORdKumSwz0O8+jElG9gZPCxOOXXRpNT7zDdYPAjswAJeJ2TUK1f6hHSwYn4lI+9eUWFgYRJzyqwg2dhBvp1PjUHAx7P88tGk/SjNhIAJcMHJLLlDfb0FNsGwNT3a8Nvxs+n5nwUJ7lVtnq5txnTBtgegRnOvXOKyqlbhLZOFXUIYzJbnJzyK3Fmj7Bth2OVsf4l6FhJZR3crXV095VU1uUWVwRFxpHHZj39g7Lfh6DRKnHmL4+ZPP1Fok4KZPjFg4rNSLgSZ/7ymMkag4QKMlWfT717/9fj8X/YdTD4WJwsCQdndpKZPcif0TiVCIs6fVxyFsVz4W4dbpFJ05Cd0CNimKxmmzUOvxlPzS4k7wyhJzizkhPVrwwzfGoCJy1wR40X1+DtFzNuUsFf+u6+MsyjE1OnEq8CS3vY1Aplb+/AMDDWoMg47cycFCTV8jVh1i0ZjsUl4+kVfNoYc+HHvNv3tnGhp/+WTn7USeEkH/8LU59Y2C7/WOYAAAAASUVORK5CYII=;fontSize=16;" vertex="1" parent="1">
          <mxGeometry x="451.25" y="314.5" width="37.5" height="25" as="geometry" />
        </mxCell>
        <mxCell id="7Gm7CVdLcvvEVIDUGQ9e-26" value="" style="shape=image;verticalLabelPosition=bottom;labelBackgroundColor=default;verticalAlign=top;aspect=fixed;imageAspect=0;image=data:image/png,iVBORw0KGgoAAAANSUhEUgAAAFEAAAA2CAIAAAAwHOKDAAAAAXNSR0IArs4c6QAACYxJREFUaAXlWvtPVEkW9g+6P5DMD27I5IYQM2p6ohVBHRWWXhzUQWVAHCQgKyIvGeQhIM92FQRHGVAUEBRhGB7CgjCwwIqAKGPLu+mm35fbt3bZIofy3svtBgLSWWJMddWpU/VVna/OOVV3F/7/+9u1QyALgjA8Ol5WWZutKUvLK9aUVTocji2a207BbLNzKdm3D5+88NWewwyLSsqfbgbwnG4h7kbuk/omWSU7BTOZ3KLRFHThioe3z+v+IdnpKlRarbZPUzOtnT3XszSeKj+GRZU1DbLyOwvzyLsPe3y/9w0Mm56dk52uQmVlTYOHt8+RoPCkzMJvDge5Deb6pjaGRRFxaVarTQGecpNObzh+JsI9MPM8n5hRuHkyuxNmIHNX74DyTiq3uhPmobdj7MEAmsxzuoXrWRovpL52I89ssSpDhVZ3wiwi8+u+wXORCa/7h17+3qE6Eez6Se42mEVk7uju+znnH0aTuaWzx8Pbh2GR6wbvNpiBzJ09/Y0tnam37hBjbvj9lYe3z8nQmHmdHqxXueA2mAmZ2YMBEXFpWUWlNpudAHM4BL3ByHFLyjjp1g1itnNc3+CwdmpGEARa3daVCZkZFn215/Cp8NiqukaL1dVDSzSrjWC2c9zV1FyGRQf8z338NCXSuBU/gcx3H1RNzcxla8o8vH1QQMj7Ce0GhtsI5o+fpg74n2NYRLuNDYztehcgMzmoBEHILy5nWFRQUk6U2Owcz/MuKtwI5ub2boZFm48BXZwixlgaZpeUP2VYlJZXjDE2mS0RV28MvR0DhTzPK5B83ZgFQcgoKCGYYZlhsC0qiDwzxjgtrxgC5uHR8ejETIhJrFZbdNJNhkWnwmP1BqN0SuvGbDJbzkclMizy8PZx3SVKB15XTVZRqSjMvv+olmFRc3s3z/M3C+/VN7WBQoDEsKijuw/qOW5Jpzfo9IaWzh6SV8XdyJ3QTur0hkWjiT6Mxbnk+wnt/u/ObCeZrVZbRFyap8pv4M0IAJiZ050Kj/VCat/AsLy7D2ky8zxfUv50975jX3/rT2fIXb0DxDyl/4sSNTFmIHNMcpad42AS0oLJbNHpDevynBhjQRAWjSaT2UIrtFptohqMMSGtaIvoXuVPn691E0KLScu79AZjZHz6sdM/kX97j54m6+SF1FCZnl9MY9NOzYREJxExT5Vf+ZN6eh/IGDzPV9U1Bv4YU9fYCnbF83y2poxhkafKjzZL6bSc1vA8n5J9u29w2KmkVGAXGLPUJKAmv7gc5j06PoECQoIvXRsaHqtrbCXMb+nsEanuGxzeve+Y6PB/3T9EgmeGRbEpOfQ6iro7/TmhnfzpaqrsGea072e27dQzkzPzfFSiYXH5wAQKEadCD0acDe1jMcYDb0bITZVoLeiOrpTJwVZV1+iKsFTmM8xA5qiETJtdhswtnT3swQCwqMqaBmILqbfugCFgjMmxRJqa27thVEEQHtUu31ptEnPNi2bae4F+FwufYSY+Q+Q2QJGd42KSs+BsIz8JMNqXYIzBXvZ/d0YUP/I8H5+Wz7AoMaNQegrAWMoFx//+lGUUWlcx055ZNkEnSGobWoi6Ce2k6kSwbFje1TtANvN8VKL0QCYRyCZvsBUgOW1axQyH2VphtsOx7GZgc8CwpTsGZM4qKpXOgKzItgU80gmsYnZKZrqz2WINvZwse2ivRWboXlnTsG0ZGwxKF1YxK5OZ7oMxHh4d9z4UKBuuTc/O+QaGydo8iTQSMwpFgZFI+Vb/XMFMk9kVq1MwbHDCsmTWLRhO/HCJjhm3GqFU/wpmp2Sme3LcUmxKDjmxpdGfUzLv8f1+eHScVogx1k5OZxSUeCE1eX/Ju/twenZeJOPiT0EQ6hpbA3+M6ezpl+2yghnILLK66dn5o0EXRdsCRrF73zHw1aCdpIEMi6TLQQLG0MvJkBiSXh3dfQf8z/3y+NmcbsFssdY3tXmq/LyQemPxKXhK2RMUY7yCGcgsypkraxq+ORw09v5PgIQxhmxO2kQfYFKOEPcG3o7oJMsaejlZOzVDaiCHRwEhE9pJemhXynqD8Wxk/JGg8NHxCVn5Zcz0ROmlndBOooCQonsVdIxFy7MHA+jrC4yx3mA8GRojjcBIRlV0r0Ka6AP/6QgczgtRtCOLYb2Vy5hpfsLmGE3myPh06RTJALfLHhFgpb9Ww4oIglBR/YLUMyyiMxOMcUd3n/ehk62SbARcQHxaPmQdgJkOXdeLbS35Fduub2ojkVNF9QuHw/FmZDz40jV1SPTk9Kxsz5k5nTokmmGRF1I//62d45ZsNvsvj5/t3ndMU1oRdOEKSRjrm9o4bonjlpra/rn36OncOw8gpAG1giCMvf+zvesPuNwVBCH11h2GRVLuQK/NFFYw8zx/90EV+a6BRBoJ6fkLhkUF1XO6hYT0fMgNydX0w6o6nucXDIuiprXSbFn9hOEMi2TXSLYLxtjOcY9rXx76W+jeo6c1pRXwKiCVX8FMGvQGY1fvQGdP//TsPFistA9dY7XaBt6MvOr+o6t3QJTN0k1Gk5nupVDWG4wJGQUMi5IyC0XHu0Kv/0peScnJu/Ng0Wiqft7MsOj+o9q15D/DvJbQ9tRrSitIdv31t/4vml+5/t2QIAhF9yqyNWWEOCSHkab0gGIHYSYXl/M6fUX1C0+VX0h0EngvmK5sYUI7GRZzfXZ+gbQSvytyunTHHYQZpiUIQumv1QyLUEDIWj4WhDHG4x8+gruxWK0XY1PJPTEtQ5d3ImZ42WBYdDU1V/n6lQYD1xXSuwpa7Mtjln1thVBvvVlnR3cfwyLZ9AZgf2HMcPvrGxhGv4EC5vW66IKS5ce9tSJtAvsLYwZsoq8nIE848cMl3YIBtshktijc8rtC5tUcA5RucwHuW0T73Puvf5PrcTqA7eod8FT5eXj7rBWEk5VSJvOXx4wxbm7vZg8GtHT2OBwr3zSYLdaohEyGReqQ6Jk5HWwDBOEXY1MhUIVWEtI7JfOOwCwIwrOXLV5IfSQoPC2v+GbhveNnIjy8faTB74ePn/56Luov+4/7n43U6VcNHmATMit4ZiL5hfkM07XZ7F29AwUl5dmasvqmNoXgd16nj4xPF8W55GmevCI7TcV2CmYA77Qw9HYsKbMQsk6QJ2R2xbe5GWbyqQm5aSFv1PBwTdjuSgzjZphH3n0Ii7lOvo97Ut9E0t7X/UMj7z6oTgT7BUe6EqK7E2bdguFsZDzcXvUNDnuq/MKv/Jxz+74XUl/4e4qLV6X/AbcAhZKM6si+AAAAAElFTkSuQmCC;fontSize=16;" vertex="1" parent="1">
          <mxGeometry x="456.25" y="354.5" width="37.5" height="25" as="geometry" />
        </mxCell>
        <mxCell id="7Gm7CVdLcvvEVIDUGQ9e-28" value="" style="endArrow=none;dashed=1;html=1;rounded=0;exitX=1;exitY=1;exitDx=0;exitDy=0;entryX=0.176;entryY=1.033;entryDx=0;entryDy=0;entryPerimeter=0;fontSize=16;" edge="1" parent="1">
          <mxGeometry width="50" height="50" relative="1" as="geometry">
            <mxPoint x="450.08" y="300" as="sourcePoint" />
            <mxPoint x="450.00000000000006" y="382.99" as="targetPoint" />
          </mxGeometry>
        </mxCell>
        <mxCell id="7Gm7CVdLcvvEVIDUGQ9e-34" value="" style="rounded=0;whiteSpace=wrap;html=1;fillColor=#f8cecc;gradientColor=#ea6b66;strokeColor=#b85450;fontSize=16;" vertex="1" parent="1">
          <mxGeometry x="448.75" y="352" width="81.25" height="30" as="geometry" />
        </mxCell>
        <mxCell id="7Gm7CVdLcvvEVIDUGQ9e-29" value="" style="endArrow=none;dashed=1;html=1;rounded=0;entryX=0;entryY=1;entryDx=0;entryDy=0;fontSize=16;" edge="1" parent="1" target="7Gm7CVdLcvvEVIDUGQ9e-12">
          <mxGeometry width="50" height="50" relative="1" as="geometry">
            <mxPoint x="430" y="380" as="sourcePoint" />
            <mxPoint x="440" y="400" as="targetPoint" />
          </mxGeometry>
        </mxCell>
        <mxCell id="7Gm7CVdLcvvEVIDUGQ9e-30" value="" style="endArrow=none;dashed=1;html=1;rounded=0;entryX=0;entryY=1;entryDx=0;entryDy=0;fontSize=16;" edge="1" parent="1">
          <mxGeometry width="50" height="50" relative="1" as="geometry">
            <mxPoint x="530" y="382" as="sourcePoint" />
            <mxPoint x="530" y="344" as="targetPoint" />
          </mxGeometry>
        </mxCell>
        <mxCell id="7Gm7CVdLcvvEVIDUGQ9e-32" value="" style="rounded=0;whiteSpace=wrap;html=1;fillColor=#f8cecc;gradientColor=#ea6b66;strokeColor=#b85450;fontSize=16;" vertex="1" parent="1">
          <mxGeometry x="390" y="352" width="40" height="30" as="geometry" />
        </mxCell>
        <mxCell id="7Gm7CVdLcvvEVIDUGQ9e-35" value="" style="rounded=0;whiteSpace=wrap;html=1;fillColor=#f8cecc;gradientColor=#fd150d;strokeColor=#b85450;fontSize=16;" vertex="1" parent="1">
          <mxGeometry x="430" y="352" width="20" height="30" as="geometry" />
        </mxCell>
        <mxCell id="7Gm7CVdLcvvEVIDUGQ9e-36" value="" style="shape=image;verticalLabelPosition=bottom;labelBackgroundColor=default;verticalAlign=top;aspect=fixed;imageAspect=0;image=data:image/png,iVBORw0KGgoAAAANSUhEUgAAAFEAAAA2CAIAAAAwHOKDAAAAAXNSR0IArs4c6QAACYxJREFUaAXlWvtPVEkW9g+6P5DMD27I5IYQM2p6ohVBHRWWXhzUQWVAHCQgKyIvGeQhIM92FQRHGVAUEBRhGB7CgjCwwIqAKGPLu+mm35fbt3bZIofy3svtBgLSWWJMddWpU/VVna/OOVV3F/7/+9u1QyALgjA8Ol5WWZutKUvLK9aUVTocji2a207BbLNzKdm3D5+88NWewwyLSsqfbgbwnG4h7kbuk/omWSU7BTOZ3KLRFHThioe3z+v+IdnpKlRarbZPUzOtnT3XszSeKj+GRZU1DbLyOwvzyLsPe3y/9w0Mm56dk52uQmVlTYOHt8+RoPCkzMJvDge5Deb6pjaGRRFxaVarTQGecpNObzh+JsI9MPM8n5hRuHkyuxNmIHNX74DyTiq3uhPmobdj7MEAmsxzuoXrWRovpL52I89ssSpDhVZ3wiwi8+u+wXORCa/7h17+3qE6Eez6Se42mEVk7uju+znnH0aTuaWzx8Pbh2GR6wbvNpiBzJ09/Y0tnam37hBjbvj9lYe3z8nQmHmdHqxXueA2mAmZ2YMBEXFpWUWlNpudAHM4BL3ByHFLyjjp1g1itnNc3+CwdmpGEARa3daVCZkZFn215/Cp8NiqukaL1dVDSzSrjWC2c9zV1FyGRQf8z338NCXSuBU/gcx3H1RNzcxla8o8vH1QQMj7Ce0GhtsI5o+fpg74n2NYRLuNDYztehcgMzmoBEHILy5nWFRQUk6U2Owcz/MuKtwI5ub2boZFm48BXZwixlgaZpeUP2VYlJZXjDE2mS0RV28MvR0DhTzPK5B83ZgFQcgoKCGYYZlhsC0qiDwzxjgtrxgC5uHR8ejETIhJrFZbdNJNhkWnwmP1BqN0SuvGbDJbzkclMizy8PZx3SVKB15XTVZRqSjMvv+olmFRc3s3z/M3C+/VN7WBQoDEsKijuw/qOW5Jpzfo9IaWzh6SV8XdyJ3QTur0hkWjiT6Mxbnk+wnt/u/ObCeZrVZbRFyap8pv4M0IAJiZ050Kj/VCat/AsLy7D2ky8zxfUv50975jX3/rT2fIXb0DxDyl/4sSNTFmIHNMcpad42AS0oLJbNHpDevynBhjQRAWjSaT2UIrtFptohqMMSGtaIvoXuVPn691E0KLScu79AZjZHz6sdM/kX97j54m6+SF1FCZnl9MY9NOzYREJxExT5Vf+ZN6eh/IGDzPV9U1Bv4YU9fYCnbF83y2poxhkafKjzZL6bSc1vA8n5J9u29w2KmkVGAXGLPUJKAmv7gc5j06PoECQoIvXRsaHqtrbCXMb+nsEanuGxzeve+Y6PB/3T9EgmeGRbEpOfQ6iro7/TmhnfzpaqrsGea072e27dQzkzPzfFSiYXH5wAQKEadCD0acDe1jMcYDb0bITZVoLeiOrpTJwVZV1+iKsFTmM8xA5qiETJtdhswtnT3swQCwqMqaBmILqbfugCFgjMmxRJqa27thVEEQHtUu31ptEnPNi2bae4F+FwufYSY+Q+Q2QJGd42KSs+BsIz8JMNqXYIzBXvZ/d0YUP/I8H5+Wz7AoMaNQegrAWMoFx//+lGUUWlcx055ZNkEnSGobWoi6Ce2k6kSwbFje1TtANvN8VKL0QCYRyCZvsBUgOW1axQyH2VphtsOx7GZgc8CwpTsGZM4qKpXOgKzItgU80gmsYnZKZrqz2WINvZwse2ivRWboXlnTsG0ZGwxKF1YxK5OZ7oMxHh4d9z4UKBuuTc/O+QaGydo8iTQSMwpFgZFI+Vb/XMFMk9kVq1MwbHDCsmTWLRhO/HCJjhm3GqFU/wpmp2Sme3LcUmxKDjmxpdGfUzLv8f1+eHScVogx1k5OZxSUeCE1eX/Ju/twenZeJOPiT0EQ6hpbA3+M6ezpl+2yghnILLK66dn5o0EXRdsCRrF73zHw1aCdpIEMi6TLQQLG0MvJkBiSXh3dfQf8z/3y+NmcbsFssdY3tXmq/LyQemPxKXhK2RMUY7yCGcgsypkraxq+ORw09v5PgIQxhmxO2kQfYFKOEPcG3o7oJMsaejlZOzVDaiCHRwEhE9pJemhXynqD8Wxk/JGg8NHxCVn5Zcz0ROmlndBOooCQonsVdIxFy7MHA+jrC4yx3mA8GRojjcBIRlV0r0Ka6AP/6QgczgtRtCOLYb2Vy5hpfsLmGE3myPh06RTJALfLHhFgpb9Ww4oIglBR/YLUMyyiMxOMcUd3n/ehk62SbARcQHxaPmQdgJkOXdeLbS35Fduub2ojkVNF9QuHw/FmZDz40jV1SPTk9Kxsz5k5nTokmmGRF1I//62d45ZsNvsvj5/t3ndMU1oRdOEKSRjrm9o4bonjlpra/rn36OncOw8gpAG1giCMvf+zvesPuNwVBCH11h2GRVLuQK/NFFYw8zx/90EV+a6BRBoJ6fkLhkUF1XO6hYT0fMgNydX0w6o6nucXDIuiprXSbFn9hOEMi2TXSLYLxtjOcY9rXx76W+jeo6c1pRXwKiCVX8FMGvQGY1fvQGdP//TsPFistA9dY7XaBt6MvOr+o6t3QJTN0k1Gk5nupVDWG4wJGQUMi5IyC0XHu0Kv/0peScnJu/Ng0Wiqft7MsOj+o9q15D/DvJbQ9tRrSitIdv31t/4vml+5/t2QIAhF9yqyNWWEOCSHkab0gGIHYSYXl/M6fUX1C0+VX0h0EngvmK5sYUI7GRZzfXZ+gbQSvytyunTHHYQZpiUIQumv1QyLUEDIWj4WhDHG4x8+gruxWK0XY1PJPTEtQ5d3ImZ42WBYdDU1V/n6lQYD1xXSuwpa7Mtjln1thVBvvVlnR3cfwyLZ9AZgf2HMcPvrGxhGv4EC5vW66IKS5ce9tSJtAvsLYwZsoq8nIE848cMl3YIBtshktijc8rtC5tUcA5RucwHuW0T73Puvf5PrcTqA7eod8FT5eXj7rBWEk5VSJvOXx4wxbm7vZg8GtHT2OBwr3zSYLdaohEyGReqQ6Jk5HWwDBOEXY1MhUIVWEtI7JfOOwCwIwrOXLV5IfSQoPC2v+GbhveNnIjy8faTB74ePn/56Luov+4/7n43U6VcNHmATMit4ZiL5hfkM07XZ7F29AwUl5dmasvqmNoXgd16nj4xPF8W55GmevCI7TcV2CmYA77Qw9HYsKbMQsk6QJ2R2xbe5GWbyqQm5aSFv1PBwTdjuSgzjZphH3n0Ii7lOvo97Ut9E0t7X/UMj7z6oTgT7BUe6EqK7E2bdguFsZDzcXvUNDnuq/MKv/Jxz+74XUl/4e4qLV6X/AbcAhZKM6si+AAAAAElFTkSuQmCC;fontColor=default;fontSize=16;" vertex="1" parent="1">
          <mxGeometry x="456.25" y="385" width="37.5" height="25" as="geometry" />
        </mxCell>
        <mxCell id="7Gm7CVdLcvvEVIDUGQ9e-42" value="..." style="text;html=1;align=center;verticalAlign=middle;resizable=0;points=[];autosize=1;strokeColor=none;fillColor=none;fontSize=16;" vertex="1" parent="1">
          <mxGeometry x="100" y="387" width="40" height="30" as="geometry" />
        </mxCell>
        <mxCell id="7Gm7CVdLcvvEVIDUGQ9e-54" value="" style="group" vertex="1" connectable="0" parent="1">
          <mxGeometry x="200" y="200" width="368.75" height="30" as="geometry" />
        </mxCell>
        <mxCell id="7Gm7CVdLcvvEVIDUGQ9e-37" value="冲突时间片" style="text;html=1;align=left;verticalAlign=middle;resizable=0;points=[];autosize=1;strokeColor=none;fillColor=none;fontSize=14;" vertex="1" parent="7Gm7CVdLcvvEVIDUGQ9e-54">
          <mxGeometry x="26.25" width="90" height="30" as="geometry" />
        </mxCell>
        <mxCell id="7Gm7CVdLcvvEVIDUGQ9e-38" value="空闲时间片" style="text;html=1;align=left;verticalAlign=middle;resizable=0;points=[];autosize=1;strokeColor=none;fillColor=none;fontSize=14;" vertex="1" parent="7Gm7CVdLcvvEVIDUGQ9e-54">
          <mxGeometry x="278.75" width="90" height="30" as="geometry" />
        </mxCell>
        <mxCell id="7Gm7CVdLcvvEVIDUGQ9e-43" value="姿态调整时间" style="text;html=1;align=left;verticalAlign=middle;resizable=0;points=[];autosize=1;strokeColor=none;fillColor=none;fontSize=14;" vertex="1" parent="7Gm7CVdLcvvEVIDUGQ9e-54">
          <mxGeometry x="142.5" width="110" height="30" as="geometry" />
        </mxCell>
        <mxCell id="7Gm7CVdLcvvEVIDUGQ9e-49" value="" style="rounded=0;whiteSpace=wrap;html=1;fillColor=#dae8fc;gradientColor=#7ea6e0;strokeColor=#6c8ebf;dashed=1;fontSize=14;" vertex="1" parent="7Gm7CVdLcvvEVIDUGQ9e-54">
          <mxGeometry x="116.25" y="5" width="20" height="20" as="geometry" />
        </mxCell>
        <mxCell id="7Gm7CVdLcvvEVIDUGQ9e-51" value="" style="rounded=0;whiteSpace=wrap;html=1;fontSize=14;" vertex="1" parent="7Gm7CVdLcvvEVIDUGQ9e-54">
          <mxGeometry x="252.5" y="5" width="20" height="20" as="geometry" />
        </mxCell>
        <mxCell id="7Gm7CVdLcvvEVIDUGQ9e-53" value="" style="group" vertex="1" connectable="0" parent="7Gm7CVdLcvvEVIDUGQ9e-54">
          <mxGeometry y="5" width="20" height="20" as="geometry" />
        </mxCell>
        <mxCell id="7Gm7CVdLcvvEVIDUGQ9e-47" value="" style="rounded=0;whiteSpace=wrap;html=1;fillColor=#f8cecc;gradientColor=#ea6b66;strokeColor=#b85450;fontSize=14;" vertex="1" parent="7Gm7CVdLcvvEVIDUGQ9e-53">
          <mxGeometry width="10" height="20" as="geometry" />
        </mxCell>
        <mxCell id="7Gm7CVdLcvvEVIDUGQ9e-48" value="" style="rounded=0;whiteSpace=wrap;html=1;fillColor=#f8cecc;gradientColor=#fd150d;strokeColor=#b85450;fontSize=14;" vertex="1" parent="7Gm7CVdLcvvEVIDUGQ9e-53">
          <mxGeometry x="10" width="10" height="20" as="geometry" />
        </mxCell>
      </root>
    </mxGraphModel>
  </diagram>
</mxfile>
